<?xml version="1.0" encoding="UTF-8" standalone="no"?>
<svg width="25px" height="26px" viewBox="0 0 25 26" version="1.1" xmlns="http://www.w3.org/2000/svg" xmlns:xlink="http://www.w3.org/1999/xlink">
    <!-- Generator: Sketch 39.1 (31720) - http://www.bohemiancoding.com/sketch -->
    <title>icon-restart</title>
    <desc>Created with Sketch.</desc>
    <defs></defs>
    <g id="site" stroke="none" stroke-width="1" fill="none" fill-rule="evenodd">
        <g id="icon-restart" fill="#231F1F">
            <g id="Page-1">
                <path d="M16.2547,10.0753 L15.9647,2.6963 C15.9517,2.3653 16.2097,2.0863 16.5407,2.0733 L23.9197,1.7833 C24.4537,1.7623 24.7467,2.3973 24.3837,2.7903 L17.2947,10.4593 C16.9317,10.8513 16.2757,10.6093 16.2547,10.0753" id="Fill-1"></path>
                <g id="Group-5" transform="translate(0.000000, 0.459300)">
                    <path d="M24.4907,12.2689 C24.7457,18.7639 19.6847,24.4469 13.2207,24.9609 C13.0607,24.9669 12.8907,24.9839 12.7307,24.9899 C9.5437,25.1159 6.5077,24.0239 4.1127,21.8959 C1.7277,19.7679 0.2827,16.8829 0.0487,13.7099 C0.0217,13.5499 0.0157,13.3909 0.0097,13.2309 C-0.2473,6.6859 4.6977,1.1169 11.1497,0.5439 C11.4887,0.5099 11.7797,0.7789 11.7937,1.1189 L11.8447,2.4279 C11.8577,2.7579 11.6177,3.0169 11.2987,3.0499 C6.1147,3.5539 2.1697,8.1119 2.5287,13.4119 C2.6987,15.9669 3.8517,18.3139 5.7807,20.0289 C7.7727,21.8129 10.3677,22.6709 13.0217,22.4669 C18.1697,22.0649 22.1957,17.5329 21.9927,12.3669 C21.8807,9.2689 20.3507,6.4869 17.7887,4.7159 C17.2227,4.3279 17.0827,3.5529 17.4807,2.9769 C17.8687,2.4109 18.6437,2.2709 19.2197,2.6689 C22.4197,4.8849 24.3477,8.3819 24.4907,12.2689" id="Fill-3"></path>
                </g>
                <path d="M0.0484,14.1687 L0.0384,14.1687 C0.0224,14.0097 0.0154,13.8497 0.0094,13.6897 C0.0154,13.8497 0.0224,14.0097 0.0484,14.1687" id="Fill-6"></path>
            </g>
        </g>
    </g>
</svg>