<?xml version="1.0" encoding="UTF-8" standalone="no"?>
<svg width="50px" height="50px" viewBox="0 0 50 50" version="1.1" xmlns="http://www.w3.org/2000/svg" xmlns:xlink="http://www.w3.org/1999/xlink">
    <!-- Generator: Sketch 39.1 (31720) - http://www.bohemiancoding.com/sketch -->
    <title>icon-next-spot</title>
    <desc>Created with Sketch.</desc>
    <defs></defs>
    <g id="site" stroke="none" stroke-width="1" fill="none" fill-rule="evenodd">
        <g id="icon-next-spot">
            <circle id="Combined-Shape" fill-opacity="0.75" fill="#000000" cx="24.9592679" cy="24.9592679" r="24.9592679"></circle>
            <path d="M30.3183514,25 L20.1970485,15.1204392 C19.9343172,14.8651026 19.9343172,14.4504535 20.1970485,14.195117 L21.2244954,13.1923208 C21.4861087,12.9358931 21.9109507,12.9358931 22.172564,13.1923208 L32.728771,23.494169 C32.7433051,23.506172 32.7634292,23.5116279 32.7768453,23.5258133 L33.8054102,24.5286094 C33.9384529,24.6584601 34.0021792,24.8297756 33.9999432,25 C34.0021792,25.1702244 33.9384529,25.3415399 33.8054102,25.4713906 L32.7768453,26.4741867 C32.7634292,26.4883721 32.7433051,26.4927368 32.728771,26.505831 L22.172564,36.8076792 C21.9109507,37.0641069 21.4861087,37.0641069 21.2244954,36.8076792 L20.1970485,35.804883 C19.9343172,35.5495465 19.9343172,35.1348974 20.1970485,34.8795608 L30.3183514,25 Z" id="Fill-4" fill="#FFFFFF"></path>
        </g>
    </g>
</svg>