<?xml version="1.0" encoding="UTF-8" standalone="no"?>
<svg width="50px" height="50px" viewBox="0 0 50 50" version="1.1" xmlns="http://www.w3.org/2000/svg" xmlns:xlink="http://www.w3.org/1999/xlink">
    <!-- Generator: Sketch 39.1 (31720) - http://www.bohemiancoding.com/sketch -->
    <title>icon-speaker-spot</title>
    <desc>Created with Sketch.</desc>
    <defs></defs>
    <g id="site" stroke="none" stroke-width="1" fill="none" fill-rule="evenodd">
        <g id="icon-speaker-spot">
            <circle id="Combined-Shape" fill-opacity="0.75" fill="#000000" cx="24.9592679" cy="24.9592679" r="24.9592679"></circle>
            <path d="M24.8843989,14.1065721 L17.2272509,19.1268824 L12.2989225,19.1268824 C11.5812678,19.1268824 11,19.7171199 11,20.4433973 L11,24.9052858 L11,29.329873 C11,30.0572475 11.5812678,30.646388 12.2989225,30.646388 L17.2272509,30.646388 L24.8735746,35.8861174 C25.3043839,36.1812361 25.8867341,35.8685638 25.8867341,35.3408608 L25.8867341,14.6595084 C25.8867341,14.1372908 25.3162907,13.8235214 24.8843989,14.1065721 Z M35.5224658,14.5917079 C35.2691759,14.3229194 34.8362018,14.3316962 34.5829119,14.6004846 L33.6098025,15.6306575 C33.3684194,15.887378 33.3781613,16.2845266 33.618462,16.5423441 C35.7357056,18.8177208 36.8939115,21.775491 36.8939115,24.9406123 C36.8939115,28.0826946 35.686996,31.1282324 33.5610929,33.391541 C33.3197098,33.6482614 33.307803,34.044313 33.5481037,34.3021305 L34.513636,35.3377889 C34.7658435,35.6087715 35.1977352,35.6219367 35.45319,35.3531482 C38.0964972,32.5753017 39.6,28.8188458 39.6,24.9406123 C39.6,21.0349513 38.1571136,17.3860108 35.5224658,14.5917079 Z M32.201121,18.1322553 C31.9543258,17.8546901 31.5181043,17.8612727 31.2604847,18.128964 L30.2754685,19.1547486 C30.0340854,19.4070806 30.0416624,19.7954525 30.2700563,20.0598526 C31.4380041,21.4169601 32.0755585,23.1284295 32.0755585,24.9408317 C32.0755585,26.7839526 31.42285,28.5107813 30.2256764,29.8678888 C29.9940353,30.1300947 29.9799636,30.5206608 30.2191818,30.7762841 L31.1879615,31.8130396 C31.4412514,32.0840223 31.8774729,32.0971874 32.1285979,31.8229135 C33.844258,29.9446855 34.781647,27.5266864 34.781647,24.9408317 C34.781647,22.401055 33.8702364,20.0082891 32.201121,18.1322553 Z" id="Combined-Shape" fill="#FFFFFF"></path>
        </g>
    </g>
</svg>