<svg xmlns="http://www.w3.org/2000/svg" viewBox="0 0 50 50"><title>collapse-spot</title><circle cx="25" cy="25" r="25" style="fill-opacity:0.75"/><path d="M35.2,11.6H14.7a4.12,4.12,0,0,0-4.1,4.1V34.3a4.12,4.12,0,0,0,4.1,4.1H35.2a4.12,4.12,0,0,0,4.1-4.1V15.7A4.06,4.06,0,0,0,35.2,11.6Zm1.6,21.7a2.48,2.48,0,0,1-2.5,2.5H15.6a2.48,2.48,0,0,1-2.5-2.5V16.7a2.48,2.48,0,0,1,2.5-2.5H34.3a2.48,2.48,0,0,1,2.5,2.5Z" transform="translate(0 0)" style="fill:#fff"/><path d="M15.8,34.5a.88.88,0,0,1-1.1-.1.83.83,0,0,1,0-1.1l4.8-4.4L17,26.2a.36.36,0,0,1,.3-.6l6.9-.5a.43.43,0,0,1,.4.4l-1,6.9c0,.3-.4.4-.7.2L20.6,30Z" transform="translate(0 0)" style="fill:#fff"/><path d="M33.8,15.6a.88.88,0,0,1,1.1.1.83.83,0,0,1,0,1.1l-4.8,4.4,2.4,2.6a.36.36,0,0,1-.3.6l-6.8.6a.43.43,0,0,1-.4-.4l1-6.9c0-.3.4-.4.7-.2l2.4,2.6Z" transform="translate(0 0)" style="fill:#fff"/></svg>