<?xml version="1.0" encoding="UTF-8" standalone="no"?>
<svg width="26px" height="20px" viewBox="0 0 26 20" version="1.1" xmlns="http://www.w3.org/2000/svg" xmlns:xlink="http://www.w3.org/1999/xlink">
    <!-- Generator: Sketch 39.1 (31720) - http://www.bohemiancoding.com/sketch -->
    <title>icon-mute</title>
    <desc>Created with Sketch.</desc>
    <defs></defs>
    <g id="site" stroke="none" stroke-width="1" fill="none" fill-rule="evenodd">
        <g id="icon-mute" fill="#000000">
            <path d="M12.8271,0.0972 L5.7531,4.6732 L1.2001,4.6732 C0.5371,4.6732 0.0001,5.2102 0.0001,5.8732 L0.0001,9.9402 L0.0001,13.9732 C0.0001,14.6362 0.5371,15.1732 1.2001,15.1732 L5.7531,15.1732 L12.8171,19.9492 C13.2151,20.2182 13.7531,19.9322 13.7531,19.4512 L13.7531,0.6012 C13.7531,0.1252 13.2261,-0.1608 12.8271,0.0972 Z M23.0208,9.9334 L25.0968,7.8574 C25.3308,7.6234 25.3308,7.2434 25.0968,7.0094 L24.1768,6.0904 C23.9428,5.8554 23.5628,5.8554 23.3288,6.0904 L21.2528,8.1654 L19.1768,6.0904 C18.9428,5.8554 18.5628,5.8554 18.3288,6.0904 L17.4098,7.0094 C17.1758,7.2434 17.1758,7.6234 17.4098,7.8574 L19.4858,9.9334 L17.4098,12.0094 C17.1758,12.2434 17.1758,12.6234 17.4098,12.8574 L18.3288,13.7764 C18.5628,14.0114 18.9428,14.0114 19.1768,13.7764 L21.2528,11.7014 L23.3288,13.7764 C23.5628,14.0114 23.9428,14.0114 24.1768,13.7764 L25.0968,12.8574 C25.3308,12.6234 25.3308,12.2434 25.0968,12.0094 L23.0208,9.9334 Z" id="Combined-Shape"></path>
        </g>
    </g>
</svg>