<?xml version="1.0" encoding="UTF-8" standalone="no"?>
<svg width="22px" height="19px" viewBox="0 0 22 19" version="1.1" xmlns="http://www.w3.org/2000/svg" xmlns:xlink="http://www.w3.org/1999/xlink">
    <!-- Generator: Sketch 39.1 (31720) - http://www.bohemiancoding.com/sketch -->
    <title>icon-subtitles</title>
    <desc>Created with Sketch.</desc>
    <defs>
        <polygon id="path-1" points="22 15.9998 22 0.0001 0.0004 0.0001 0.0004 15.9998 22 15.9998"></polygon>
    </defs>
    <g id="site" stroke="none" stroke-width="1" fill="none" fill-rule="evenodd">
        <g id="icon-subtitles">
            <path d="M16.0418,15.0817 L16.0418,18.6747 C16.0418,19.2097 15.3958,19.4767 15.0178,19.0997 L10.9998,15.0817 L16.0418,15.0817 Z" id="Fill-1" fill="#231F1F"></path>
            <mask id="mask-2" fill="white">
                <use xlink:href="#path-1"></use>
            </mask>
            <g id="Clip-5"></g>
            <path d="M18.5264,4.6898 C18.5264,5.0208 18.2574,5.2898 17.9264,5.2898 L11.7864,5.2898 C11.4554,5.2898 11.1864,5.0208 11.1864,4.6898 L11.1864,3.8898 C11.1864,3.5588 11.4554,3.2898 11.7864,3.2898 L17.9264,3.2898 C18.2574,3.2898 18.5264,3.5588 18.5264,3.8898 L18.5264,4.6898 Z M18.5264,8.3568 C18.5264,8.6878 18.2574,8.9568 17.9264,8.9568 L16.1614,8.9568 C15.8294,8.9568 15.5614,8.6878 15.5614,8.3568 L15.5614,7.5568 C15.5614,7.2248 15.8294,6.9568 16.1614,6.9568 L17.9264,6.9568 C18.2574,6.9568 18.5264,7.2248 18.5264,7.5568 L18.5264,8.3568 Z M14.2634,12.1098 C14.2634,12.4418 13.9944,12.7098 13.6634,12.7098 L9.2434,12.7098 C8.9124,12.7098 8.6434,12.4418 8.6434,12.1098 L8.6434,11.3098 C8.6434,10.9788 8.9124,10.7098 9.2434,10.7098 L13.6634,10.7098 C13.9944,10.7098 14.2634,10.9788 14.2634,11.3098 L14.2634,12.1098 Z M6.6434,12.1098 C6.6434,12.4418 6.3754,12.7098 6.0434,12.7098 L4.0734,12.7098 C3.7424,12.7098 3.4734,12.4418 3.4734,12.1098 L3.4734,11.3098 C3.4734,10.9788 3.7424,10.7098 4.0734,10.7098 L6.0434,10.7098 C6.3754,10.7098 6.6434,10.9788 6.6434,11.3098 L6.6434,12.1098 Z M3.4734,7.5568 C3.4734,7.2248 3.7424,6.9568 4.0734,6.9568 L12.9614,6.9568 C13.2934,6.9568 13.5614,7.2248 13.5614,7.5568 L13.5614,8.3568 C13.5614,8.6878 13.2934,8.9568 12.9614,8.9568 L4.0734,8.9568 C3.7424,8.9568 3.4734,8.6878 3.4734,8.3568 L3.4734,7.5568 Z M3.4734,3.8898 C3.4734,3.5588 3.7424,3.2898 4.0734,3.2898 L8.5874,3.2898 C8.9184,3.2898 9.1864,3.5588 9.1864,3.8898 L9.1864,4.6898 C9.1864,5.0208 8.9184,5.2898 8.5874,5.2898 L4.0734,5.2898 C3.7424,5.2898 3.4734,5.0208 3.4734,4.6898 L3.4734,3.8898 Z M20.8004,-0.0002 L1.2004,-0.0002 C0.5374,-0.0002 0.0004,0.5368 0.0004,1.1998 L0.0004,14.7998 C0.0004,15.4628 0.5374,15.9998 1.2004,15.9998 L20.8004,15.9998 C21.4634,15.9998 22.0004,15.4628 22.0004,14.7998 L22.0004,1.1998 C22.0004,0.5368 21.4634,-0.0002 20.8004,-0.0002 L20.8004,-0.0002 Z" id="Fill-4" fill="#231F1F" mask="url(#mask-2)"></path>
        </g>
    </g>
</svg>