<?xml version="1.0" encoding="UTF-8" standalone="no"?>
<svg width="23px" height="23px" viewBox="0 0 23 23" version="1.1" xmlns="http://www.w3.org/2000/svg" xmlns:xlink="http://www.w3.org/1999/xlink">
    <!-- Generator: Sketch 39.1 (31720) - http://www.bohemiancoding.com/sketch -->
    <title>icon-home</title>
    <desc>Created with Sketch.</desc>
    <defs>
        <polygon id="path-1" points="22.82 13.5860072 22.82 0.603 0 0.603 0 13.5860072 22.82 13.5860072"></polygon>
    </defs>
    <g id="site" stroke="none" stroke-width="1" fill="none" fill-rule="evenodd">
        <g id="icon-home">
            <g id="Page-1">
                <g id="Group-3" transform="translate(0.000000, 0.396900)">
                    <mask id="mask-2" fill="white">
                        <use xlink:href="#path-1"></use>
                    </mask>
                    <g id="Clip-2"></g>
                    <path d="M20.8703,13.4085 L11.8783,4.3255 C11.6443,4.0895 11.2623,4.0885 11.0273,4.3235 L1.9433,13.4085 C1.7093,13.6425 1.3293,13.6425 1.0943,13.4085 L0.1753,12.4895 C-0.0587,12.2545 -0.0587,11.8745 0.1753,11.6405 L11.0373,0.7785 C11.2723,0.5435 11.6533,0.5445 11.8873,0.7815 L22.6463,11.6495 C22.8803,11.8855 22.8783,12.2655 22.6423,12.4985 L21.7193,13.4125 C21.4833,13.6455 21.1033,13.6435 20.8703,13.4085" id="Fill-1" fill="#231F1F" mask="url(#mask-2)"></path>
                </g>
                <g id="Group-6" transform="translate(2.000000, 2.396900)" fill="#231F1F">
                    <path d="M17.978,9.1131 L17.978,19.4001 C17.978,19.7311 17.709,20.0001 17.378,20.0001 L12.349,20.0001 C12.018,20.0001 11.749,19.7311 11.749,19.4001 L11.749,11.0861 L7.072,11.0861 L7.072,19.4001 C7.072,19.7311 6.804,20.0001 6.472,20.0001 L1.443,20.0001 C1.112,20.0001 0.843,19.7311 0.843,19.4001 L0.843,9.1131 L9.457,0.1251 L17.978,9.1131 Z" id="Fill-4"></path>
                </g>
            </g>
        </g>
    </g>
</svg>