<svg xmlns="http://www.w3.org/2000/svg" viewBox="0 0 28.7 26.8"><title>collapse</title><path d="M308.2,408.6H287.7a4.12,4.12,0,0,0-4.1,4.1v18.6a4.12,4.12,0,0,0,4.1,4.1h20.5a4.12,4.12,0,0,0,4.1-4.1V412.7A4.06,4.06,0,0,0,308.2,408.6Zm1.6,21.7a2.48,2.48,0,0,1-2.5,2.5H288.6a2.48,2.48,0,0,1-2.5-2.5V413.7a2.48,2.48,0,0,1,2.5-2.5h18.7a2.48,2.48,0,0,1,2.5,2.5Z" transform="translate(-283.6 -408.6)"/><path d="M288.8,431.5a.88.88,0,0,1-1.1-.1.83.83,0,0,1,0-1.1l4.8-4.4-2.5-2.7a.36.36,0,0,1,.3-.6l6.9-.5a.43.43,0,0,1,.4.4l-1,6.9c0,.3-.4.4-.7.2l-2.3-2.6Z" transform="translate(-283.6 -408.6)"/><path d="M306.8,412.6a.88.88,0,0,1,1.1.1.83.83,0,0,1,0,1.1l-4.8,4.4,2.4,2.6a.36.36,0,0,1-.3.6l-6.8.6a.43.43,0,0,1-.4-.4l1-6.9c0-.3.4-.4.7-.2l2.4,2.6Z" transform="translate(-283.6 -408.6)"/></svg>