<?xml version="1.0" encoding="UTF-8" standalone="no"?>
<svg width="50px" height="50px" viewBox="0 0 50 50" version="1.1" xmlns="http://www.w3.org/2000/svg" xmlns:xlink="http://www.w3.org/1999/xlink">
    <!-- Generator: Sketch 39.1 (31720) - http://www.bohemiancoding.com/sketch -->
    <title>icon-close-spot</title>
    <desc>Created with Sketch.</desc>
    <defs></defs>
    <g id="site" stroke="none" stroke-width="1" fill="none" fill-rule="evenodd">
        <g id="icon-close-spot">
            <circle id="Combined-Shape" fill-opacity="0.75" fill="#000000" cx="24.9592679" cy="24.9592679" r="24.9592679"></circle>
            <path d="M26.8655601,25 L35.2855242,16.5803536 C35.5298253,16.3360617 35.5298253,15.9359284 35.2855242,15.6916365 L34.3083197,14.7144689 C34.0640186,14.470177 33.6649233,14.470177 33.4195692,14.7144689 L24.9996051,23.1341154 L16.5796411,14.7144689 C16.33534,14.470177 15.9362446,14.470177 15.6908905,14.7144689 L14.7136861,15.6916365 C14.470438,15.9359284 14.470438,16.3360617 14.7136861,16.5803536 L23.1347031,25 L14.7136861,33.4196464 C14.470438,33.6639383 14.470438,34.0640716 14.7136861,34.3083635 L15.6908905,35.2855311 C15.9362446,35.529823 16.33534,35.529823 16.5796411,35.2855311 L24.9996051,26.8658846 L33.4195692,35.2855311 C33.6649233,35.529823 34.0640186,35.529823 34.3083197,35.2855311 L35.2855242,34.3083635 C35.5298253,34.0640716 35.5298253,33.6639383 35.2855242,33.4196464 L26.8655601,25 Z" id="Fill-14" fill="#FFFFFF"></path>
        </g>
    </g>
</svg>