<?xml version="1.0" encoding="UTF-8" standalone="no"?>
<svg width="23px" height="23px" viewBox="0 0 23 23" version="1.1" xmlns="http://www.w3.org/2000/svg" xmlns:xlink="http://www.w3.org/1999/xlink">
    <!-- Generator: Sketch 39.1 (31720) - http://www.bohemiancoding.com/sketch -->
    <title>icon-zoom-in</title>
    <desc>Created with Sketch.</desc>
    <defs>
        <polygon id="path-1" points="8.622 7.9997 8.622 0.0947 0.71755 0.0947 0.71755 7.9997 8.622 7.9997"></polygon>
    </defs>
    <g id="site" stroke="none" stroke-width="1" fill="none" fill-rule="evenodd">
        <g id="icon-zoom-in">
            <g id="Page-1" transform="translate(1.000000, 1.000000)">
                <path d="M17.25,8.75 C17.25,13.444 13.444,17.25 8.75,17.25 C4.056,17.25 0.25,13.444 0.25,8.75 C0.25,4.056 4.056,0.25 8.75,0.25 C13.444,0.25 17.25,4.056 17.25,8.75" id="Fill-1" fill="#FFFFFF"></path>
                <path d="M17.25,8.75 C17.25,13.444 13.444,17.25 8.75,17.25 C4.056,17.25 0.25,13.444 0.25,8.75 C0.25,4.056 4.056,0.25 8.75,0.25 C13.444,0.25 17.25,4.056 17.25,8.75 L17.25,8.75 Z" id="Stroke-3" stroke="#231F1F" stroke-width="2.5"></path>
                <g id="Group-7" transform="translate(13.000000, 13.641400)">
                    <mask id="mask-2" fill="white">
                        <use xlink:href="#path-1"></use>
                    </mask>
                    <g id="Clip-6"></g>
                    <path d="M6.5528,7.8242 L0.8938,2.1642 C0.6588,1.9292 0.6588,1.5502 0.8938,1.3152 L1.9388,0.2702 C2.1728,0.0362 2.5528,0.0362 2.7868,0.2702 L8.4468,5.9302 C8.6808,6.1642 8.6808,6.5442 8.4468,6.7792 L7.4018,7.8242 C7.1668,8.0582 6.7868,8.0582 6.5528,7.8242" id="Fill-5" fill="#231F1F" mask="url(#mask-2)"></path>
                </g>
                <path d="M11.8996,9.9999 L5.5996,9.9999 C5.2686,9.9999 4.9996,9.7309 4.9996,9.3999 L4.9996,8.0999 C4.9996,7.7689 5.2686,7.4999 5.5996,7.4999 L11.8996,7.4999 C12.2306,7.4999 12.4996,7.7689 12.4996,8.0999 L12.4996,9.3999 C12.4996,9.7309 12.2306,9.9999 11.8996,9.9999" id="Fill-8" fill="#231F1F"></path>
                <path d="M9.3996,12.4999 L8.0996,12.4999 C7.7686,12.4999 7.4996,12.2309 7.4996,11.8999 L7.4996,5.5999 C7.4996,5.2689 7.7686,4.9999 8.0996,4.9999 L9.3996,4.9999 C9.7306,4.9999 9.9996,5.2689 9.9996,5.5999 L9.9996,11.8999 C9.9996,12.2309 9.7306,12.4999 9.3996,12.4999" id="Fill-10" fill="#231F1F"></path>
            </g>
        </g>
    </g>
</svg>