<?xml version="1.0" encoding="UTF-8" standalone="no"?>
<svg width="13px" height="22px" viewBox="0 0 13 22" version="1.1" xmlns="http://www.w3.org/2000/svg" xmlns:xlink="http://www.w3.org/1999/xlink">
    <!-- Generator: Sketch 39.1 (31720) - http://www.bohemiancoding.com/sketch -->
    <title>icon-previous</title>
    <desc>Created with Sketch.</desc>
    <defs></defs>
    <g id="site" stroke="none" stroke-width="1" fill="none" fill-rule="evenodd">
        <g id="icon-previous" fill="#000000">
            <path d="M3.29305083,10.99725 L12.3460508,1.94325 C12.5810508,1.70925 12.5810508,1.32925 12.3460508,1.09525 L11.4270508,0.17625 C11.1930508,-0.05875 10.8130508,-0.05875 10.5790508,0.17625 L1.13705083,9.61725 C1.12405083,9.62825 1.10605083,9.63325 1.09405083,9.64625 L0.174050833,10.56525 C0.0550508329,10.68425 -0.00194916714,10.84125 5.08328599e-05,10.99725 C-0.00194916714,11.15325 0.0550508329,11.31025 0.174050833,11.42925 L1.09405083,12.34825 C1.10605083,12.36125 1.12405083,12.36525 1.13705083,12.37725 L10.5790508,21.81825 C10.8130508,22.05325 11.1930508,22.05325 11.4270508,21.81825 L12.3460508,20.89925 C12.5810508,20.66525 12.5810508,20.28525 12.3460508,20.05125 L3.29305083,10.99725 Z" id="Fill-1"></path>
        </g>
    </g>
</svg>