<?xml version="1.0" encoding="UTF-8" standalone="no"?>
<svg width="23px" height="21px" viewBox="0 0 23 21" version="1.1" xmlns="http://www.w3.org/2000/svg" xmlns:xlink="http://www.w3.org/1999/xlink">
    <!-- Generator: Sketch 39.1 (31720) - http://www.bohemiancoding.com/sketch -->
    <title>icon-back</title>
    <desc>Created with Sketch.</desc>
    <defs></defs>
    <g id="site" stroke="none" stroke-width="1" fill="none" fill-rule="evenodd">
        <g id="icon-back" fill="#000000">
            <path d="M22.8515,13.9867 C22.8615,13.8767 22.8515,13.7667 22.8415,13.6467 L22.8315,13.6467 C22.4415,9.3767 18.8415,6.0267 14.4615,6.0267 L9.6395,6.0267 L9.6395,0.6007 C9.6395,0.0977 9.0575,-0.1813 8.6645,0.1327 L0.2255,6.8847 C-0.0755,7.1247 -0.0755,7.5807 0.2255,7.8217 L8.6645,14.5727 C9.0575,14.8867 9.6395,14.6077 9.6395,14.1047 L9.6395,8.5267 L14.4615,8.5267 C17.7215,8.5267 20.3615,11.1667 20.3615,14.4167 C20.3715,14.4267 20.3715,14.4267 20.3615,14.4367 C20.3315,16.1967 19.5015,17.8167 18.1415,18.8967 C17.8815,19.0867 17.8015,19.4367 17.9815,19.7067 L18.6715,20.8067 C18.8615,21.0967 19.2515,21.1767 19.5215,20.9767 C21.5805,19.4507 22.7915,17.0817 22.8425,14.5137 C22.8445,14.4797 22.8615,14.4507 22.8615,14.4167 C22.8615,14.2767 22.8615,14.1267 22.8515,13.9867" id="Fill-1"></path>
        </g>
    </g>
</svg>