<?xml version="1.0" encoding="UTF-8" standalone="no"?>
<svg width="50px" height="50px" viewBox="0 0 50 50" version="1.1" xmlns="http://www.w3.org/2000/svg" xmlns:xlink="http://www.w3.org/1999/xlink">
    <!-- Generator: Sketch 39.1 (31720) - http://www.bohemiancoding.com/sketch -->
    <title>icon-pause-spot</title>
    <desc>Created with Sketch.</desc>
    <defs></defs>
    <g id="site" stroke="none" stroke-width="1" fill="none" fill-rule="evenodd">
        <g id="icon-pause-spot">
            <circle id="Combined-Shape" fill-opacity="0.75" fill="#000000" cx="24.9592679" cy="24.9592679" r="24.9592679"></circle>
            <path d="M21.4087516,34.5 L16.2179602,34.5 C15.8352503,34.5 15.5263158,34.1870638 15.5263158,33.8020009 L15.5263158,15.1979991 C15.5263158,14.8129362 15.8352503,14.5 16.2179602,14.5 L21.4087516,14.5 C21.7903088,14.5 22.100396,14.8129362 22.100396,15.1979991 L22.100396,33.8020009 C22.100396,34.1870638 21.7903088,34.5 21.4087516,34.5 Z M33.7820398,34.5 L28.5912484,34.5 C28.2085385,34.5 27.899604,34.1870638 27.899604,33.8020009 L27.899604,15.1979991 C27.899604,14.8129362 28.2085385,14.5 28.5912484,14.5 L33.7820398,14.5 C34.163597,14.5 34.4736842,14.8129362 34.4736842,15.1979991 L34.4736842,33.8020009 C34.4736842,34.1870638 34.163597,34.5 33.7820398,34.5 Z" id="Combined-Shape" fill="#FFFFFF"></path>
        </g>
    </g>
</svg>