<?xml version="1.0" encoding="UTF-8" standalone="no"?>
<svg width="17px" height="18px" viewBox="0 0 17 18" version="1.1" xmlns="http://www.w3.org/2000/svg" xmlns:xlink="http://www.w3.org/1999/xlink">
    <!-- Generator: Sketch 39.1 (31720) - http://www.bohemiancoding.com/sketch -->
    <title>icon-pause</title>
    <desc>Created with Sketch.</desc>
    <defs></defs>
    <g id="site" stroke="none" stroke-width="1" fill="none" fill-rule="evenodd">
        <g id="icon-pause" fill="#231F1F">
            <path d="M5.103,17.192 L0.6,17.192 C0.268,17.192 -1.42108547e-14,16.923 -1.42108547e-14,16.592 L-1.42108547e-14,0.6 C-1.42108547e-14,0.269 0.268,7.10542736e-15 0.6,7.10542736e-15 L5.103,7.10542736e-15 C5.434,7.10542736e-15 5.703,0.269 5.703,0.6 L5.703,16.592 C5.703,16.923 5.434,17.192 5.103,17.192 Z M15.8368,17.192 L11.3338,17.192 C11.0018,17.192 10.7338,16.923 10.7338,16.592 L10.7338,0.6 C10.7338,0.269 11.0018,7.10542736e-15 11.3338,7.10542736e-15 L15.8368,7.10542736e-15 C16.1678,7.10542736e-15 16.4368,0.269 16.4368,0.6 L16.4368,16.592 C16.4368,16.923 16.1678,17.192 15.8368,17.192 Z" id="Combined-Shape"></path>
        </g>
    </g>
</svg>