<?xml version="1.0" encoding="UTF-8"?>
<svg width="28px" height="28px" viewBox="0 0 28 28" version="1.1" xmlns="http://www.w3.org/2000/svg" xmlns:xlink="http://www.w3.org/1999/xlink">
	<title>icon-headphones</title>
	<path id="icon-headphones" stroke="none" fill-rule="evenodd" fill="#000000" d="m 25.059155,25.822685 c -0.06856,0.334261 -0.385385,0.547641 -0.716753,0.487726 l -0.65131,-0.115624 c -0.331368,-0.05886 -0.557821,-0.37 -0.508998,-0.706362 0.02647,-0.185822 0.05887,-0.412953 0.09684,-0.678844 l -1.084114,0.09699 -0.281507,1.796388 c -0.05402,0.343721 -0.372919,0.579175 -0.712598,0.524516 l -2.251019,-0.30588 c -0.339707,-0.05466 -0.571354,-0.377359 -0.518376,-0.72108 l 1.430389,-9.136456 c 0.05402,-0.343721 0.372919,-0.579175 0.712598,-0.524516 l 2.251019,0.30588 c 0.339679,0.05466 0.572364,0.377357 0.518347,0.721078 l -0.279429,1.785877 0.923815,0.499201 c 0,0 0.313511,-2.191348 0.490391,-3.428185 0.219182,-1.412753 0.154468,-2.898374 -0.02908,-4.25499 C 24.192788,10.720989 23.591339,9.208407 22.638785,7.8944896 21.692463,6.5795211 20.431394,5.4054045 18.924135,4.6212587 17.687403,3.982651 16.532338,3.677436 15.278045,3.477625 14.375422,3.3479244 13.580583,3.3435811 12.649958,3.482881 11.375524,3.621529 10.129328,4.1317593 9.0568386,4.6233609 7.5506189,5.4096091 6.2895495,6.5826745 5.3442668,7.8986941 4.390674,9.2178672 3.7944187,10.714682 3.5336869,12.184167 c -0.2698791,1.463979 -0.1413109,2.815081 -0.024927,4.244479 0.190453,1.332059 0.524256,3.666706 0.524256,3.666706 L 5.40796,19.352374 5.1285303,17.566497 c -0.054016,-0.343721 0.1786688,-0.666419 0.5183473,-0.721078 l 2.2510193,-0.30588 c 0.3396785,-0.05466 0.6585816,0.180795 0.7125977,0.524516 l 1.4303894,9.136456 c 0.05298,0.343721 -0.1786689,0.666419 -0.5183474,0.721078 l -2.2510193,0.30588 C 6.9318388,27.282128 6.6129358,27.046674 6.5589196,26.702953 L 6.2774123,24.906565 4.7009085,24.765487 c 0.041095,0.287179 0.075986,0.530913 0.1042356,0.728137 0.048822,0.337414 -0.1776301,0.647499 -0.5089984,0.706362 L 3.6448356,26.316662 C 3.3134672,26.375526 2.9966417,26.162145 2.9280828,25.828936 2.6631959,24.54445 1.0821846,16.861713 1.0821846,16.861713 0.91718108,16.0503 0.85176215,15.214064 0.7726305,14.456718 0.7373122,13.465499 0.8214528,12.646666 0.9803849,11.70485 1.3065594,9.8737747 2.0523978,8.0080121 3.2334818,6.3671921 4.4083331,4.7284743 5.9768791,3.2768584 7.8508241,2.2961505 9.8105898,1.2718408 11.849049,0.85991783 13.924525,0.7646484 c 2.26764,0.005256 4.306749,0.5486919 6.205625,1.5293998 1.873945,0.9786057 3.44353,2.4302216 4.618381,4.0678882 1.183161,1.6460757 1.927961,3.493969 2.258291,5.3471186 0.180058,0.919247 0.210736,1.865012 0.207827,2.742409 -0.06153,0.869018 -0.188647,1.623655 -0.309596,2.405026 0,0 -1.581011,7.682761 -1.845898,8.966195 z"></path>
</svg>