<?xml version="1.0" encoding="UTF-8" standalone="no"?>
<svg width="13px" height="22px" viewBox="0 0 13 22" version="1.1" xmlns="http://www.w3.org/2000/svg" xmlns:xlink="http://www.w3.org/1999/xlink">
    <!-- Generator: Sketch 39.1 (31720) - http://www.bohemiancoding.com/sketch -->
    <title>icon-next</title>
    <desc>Created with Sketch.</desc>
    <defs></defs>
    <g id="site" stroke="none" stroke-width="1" fill="none" fill-rule="evenodd">
        <g id="icon-next" fill="#000000">
            <path d="M9.7047,11.003 L0.6517,1.949 C0.4167,1.715 0.4167,1.335 0.6517,1.101 L1.5707,0.182 C1.8047,-0.053 2.1847,-0.053 2.4187,0.182 L11.8607,9.623 C11.8737,9.634 11.8917,9.639 11.9037,9.652 L12.8237,10.571 C12.9427,10.69 12.9997,10.847 12.9977,11.003 C12.9997,11.159 12.9427,11.316 12.8237,11.435 L11.9037,12.354 C11.8917,12.367 11.8737,12.371 11.8607,12.383 L2.4187,21.824 C2.1847,22.059 1.8047,22.059 1.5707,21.824 L0.6517,20.905 C0.4167,20.671 0.4167,20.291 0.6517,20.057 L9.7047,11.003 Z" id="Fill-4"></path>
        </g>
    </g>
</svg>