<svg xmlns="http://www.w3.org/2000/svg" viewBox="0 0 50 50"><title>expand-spot</title><circle cx="25" cy="25" r="25" style="fill-opacity:0.75"/><path d="M35.2,11.6H14.7a4.12,4.12,0,0,0-4.1,4.1V34.3a4.12,4.12,0,0,0,4.1,4.1H35.2a4.12,4.12,0,0,0,4.1-4.1V15.7A4.06,4.06,0,0,0,35.2,11.6Zm1.6,21.7a2.48,2.48,0,0,1-2.5,2.5H15.6a2.48,2.48,0,0,1-2.5-2.5V16.7a2.48,2.48,0,0,1,2.5-2.5H34.3a2.48,2.48,0,0,1,2.5,2.5Z" transform="translate(0 0)" style="fill:#fff"/><path d="M27.9,21.2l-2.5-2.7a.42.42,0,0,1,.3-.7l7.2-.5c.3,0,.5.2.4.5L32.2,25c-.1.3-.5.5-.7.2L29,22.4l-7.1,6.5,2.5,2.8a.42.42,0,0,1-.3.7l-7.1.4c-.3,0-.5-.2-.4-.5l1.1-7.2c.1-.3.5-.5.7-.2l2.5,2.7Z" transform="translate(0 0)" style="fill:#fff"/></svg>