<?xml version="1.0" encoding="UTF-8" standalone="no"?>
<svg width="50px" height="50px" viewBox="0 0 50 50" version="1.1" xmlns="http://www.w3.org/2000/svg" xmlns:xlink="http://www.w3.org/1999/xlink">
    <!-- Generator: Sketch 39.1 (31720) - http://www.bohemiancoding.com/sketch -->
    <title>icon-home-spot</title>
    <desc>Created with Sketch.</desc>
    <defs>
        <polygon id="path-1" points="27.6026859 16.4334045 27.6026859 0.729378599 0 0.729378599 0 16.4334045 27.6026859 16.4334045"></polygon>
    </defs>
    <g id="site" stroke="none" stroke-width="1" fill="none" fill-rule="evenodd">
        <g id="icon-home-spot">
            <circle id="Combined-Shape" fill-opacity="0.75" fill="#000000" cx="24.9592679" cy="24.9592679" r="24.9592679"></circle>
            <g id="Page-1" transform="translate(11.272461, 9.299407)">
                <g id="Group-6" transform="translate(1.365274, 2.899250)"></g>
                <g id="Group-3" transform="translate(0.000000, 0.480084)">
                    <mask id="mask-2" fill="white">
                        <use xlink:href="#path-1"></use>
                    </mask>
                    <g id="Clip-2"></g>
                    <path d="M25.2443618,16.2186948 L14.3677907,5.23205162 C14.0847483,4.94659001 13.6226875,4.94538043 13.3384355,5.22963246 L2.3505828,16.2186948 C2.06754036,16.5017372 1.60789879,16.5017372 1.32364677,16.2186948 L0.212039914,15.1070879 C-0.0710025269,14.8228359 -0.0710025269,14.3631943 0.212039914,14.0801519 L13.3505314,0.94166043 C13.6347834,0.657408405 14.0956345,0.658617988 14.378677,0.945289179 L27.3925814,14.0910381 C27.6756238,14.3764997 27.6732046,14.8361413 27.387743,15.1179742 L26.2712978,16.2235331 C25.9858362,16.5053659 25.5261947,16.5029468 25.2443618,16.2186948" id="Fill-1" fill="#FFFFFF" mask="url(#mask-2)"></path>
                </g>
                <path d="M24.1650508,13.9223013 L24.1650508,26.3652824 C24.1650508,26.7656544 23.839673,27.0910323 23.439301,27.0910323 L17.3563076,27.0910323 C16.9559356,27.0910323 16.6305578,26.7656544 16.6305578,26.3652824 L16.6305578,16.3088087 L10.9733377,16.3088087 L10.9733377,26.3652824 C10.9733377,26.7656544 10.6491695,27.0910323 10.2475879,27.0910323 L4.16459455,27.0910323 C3.76422255,27.0910323 3.4388447,26.7656544 3.4388447,26.3652824 L3.4388447,13.9223013 L13.8581934,3.05056853 L24.1650508,13.9223013 Z" id="Fill-4" fill="#FFFFFF"></path>
            </g>
        </g>
    </g>
</svg>