<svg xmlns="http://www.w3.org/2000/svg" viewBox="0 0 50 50"><title>gallery-spot</title><circle cx="25" cy="25" r="25" style="fill:#010101;fill-opacity:0.75"/><path d="M39.22,17.4H35.49V13.67a1.92,1.92,0,0,0-1.93-1.93H10.77a1.92,1.92,0,0,0-1.93,1.93v17a1.92,1.92,0,0,0,1.93,1.93h3.74v3.74a1.92,1.92,0,0,0,1.93,1.93H39.23a1.92,1.92,0,0,0,1.93-1.93v-17a1.92,1.92,0,0,0-1.93-1.93ZM11.53,29.84V14.5H32.75V29.83Zm26.84,5.67H17.16V32.62H33.55a1.92,1.92,0,0,0,1.93-1.93V20.17h2.89Z" transform="translate(0 0)" style="fill:#fff"/></svg>