<?xml version="1.0" encoding="UTF-8" standalone="no"?>
<svg width="50px" height="50px" viewBox="0 0 50 50" version="1.1" xmlns="http://www.w3.org/2000/svg" xmlns:xlink="http://www.w3.org/1999/xlink">
    <!-- Generator: Sketch 39.1 (31720) - http://www.bohemiancoding.com/sketch -->
    <title>icon-restart-spot</title>
    <desc>Created with Sketch.</desc>
    <defs></defs>
    <g id="site" stroke="none" stroke-width="1" fill="none" fill-rule="evenodd">
        <g id="icon-restart-spot">
            <circle id="Combined-Shape" fill-opacity="0.75" fill="#000000" cx="24.9592679" cy="24.9592679" r="24.9592679"></circle>
            <g id="Page-1" transform="translate(11.807467, 10.759766)">
                <path d="M17.8054414,11.0365103 L17.4877746,2.95353415 C17.4735344,2.59095587 17.7561482,2.28533854 18.1187265,2.2710983 L26.2017026,1.95343154 C26.7866476,1.93042808 27.1076006,2.62600876 26.7099695,3.056502 L18.9446601,11.4571449 C18.547029,11.8865427 17.8284448,11.6214553 17.8054414,11.0365103" id="Fill-1" fill="#FFFFFF"></path>
                <g id="Group-5" transform="translate(0.000000, 0.503118)" fill="#FFFFFF">
                    <path d="M26.8271775,13.4393855 C27.1065052,20.5540257 21.5626724,26.7791989 14.4819897,27.3422359 C14.3067253,27.3488083 14.1205069,27.3674301 13.9452424,27.3740025 C10.4541942,27.5120233 7.12855179,26.3158436 4.50506245,23.9848268 C1.89252715,21.6538099 0.309670328,18.4935733 0.0533461088,15.0178607 C0.0237702374,14.8425963 0.0171978215,14.6684273 0.0106254056,14.4931628 C-0.270893074,7.32375254 5.145873,1.22345521 12.2134109,0.595789498 C12.5847524,0.558545808 12.9035145,0.85320912 12.9188502,1.22564602 L12.9747157,2.65952808 C12.9889559,3.02101095 12.7260593,3.30472024 12.3766259,3.34086852 C6.69805855,3.89295146 2.37669512,8.88579671 2.76994467,14.6914307 C2.95616312,17.4901845 4.21916236,20.0610945 6.33219407,21.93971 C8.51423613,23.8939083 11.356806,24.8337638 14.2640046,24.6103017 C19.9031374,24.1699498 24.3132285,19.205585 24.0908617,13.546735 C23.9681766,10.1531776 22.2922106,7.10576741 19.485789,5.16580933 C18.8657911,4.7407931 18.7124348,3.89185605 19.148405,3.26090413 C19.5734212,2.64090623 20.4223583,2.48754986 21.0533102,2.92352012 C24.5585987,5.35093238 26.670535,9.18155542 26.8271775,13.4393855" id="Fill-3"></path>
                </g>
                <path d="M0.053017488,15.5204314 L0.0420634615,15.5204314 C0.0245370192,15.3462624 0.0168692007,15.170998 0.0102967849,14.9957336 C0.0168692007,15.170998 0.0245370192,15.3462624 0.053017488,15.5204314" id="Fill-6" fill="#231F1F"></path>
            </g>
        </g>
    </g>
</svg>