<?xml version="1.0" encoding="UTF-8" standalone="no"?>
<svg width="50px" height="50px" viewBox="0 0 50 50" version="1.1" xmlns="http://www.w3.org/2000/svg" xmlns:xlink="http://www.w3.org/1999/xlink">
    <!-- Generator: Sketch 39.1 (31720) - http://www.bohemiancoding.com/sketch -->
    <title>icon-headphones-spot</title>
    <desc>Created with Sketch.</desc>
    <defs></defs>
    <g id="site" stroke="none" stroke-width="1" fill="none" fill-rule="evenodd">
        <g id="icon-headphones-spot">
            <circle id="Combined-Shape" fill-opacity="0.75" fill="#000000" cx="24.9592679" cy="24.9592679" r="24.9592679"></circle>
            <path d="M34.9880594,29.8515747 C35.1371935,28.8092262 35.30157,27.6602272 35.4784502,26.42339 L35.5179236,26.1500951 L35.5366215,26.0123966 L35.5418153,25.9777092 L35.5449316,25.960891 C35.5376602,26.0176523 35.5625908,25.8095278 35.5303888,26.0828226 L35.5335051,26.0134477 C35.5428541,25.8263459 35.5511643,25.6381929 35.5605132,25.4479377 C35.5833662,25.0684784 35.6062192,24.68061 35.630111,24.2874859 L35.6394599,24.139276 L35.6415375,24.1024863 L35.6425762,24.0835659 C35.6415375,24.37473 35.6415375,24.1539919 35.6415375,24.2139065 L35.6373824,24.139276 L35.6228396,23.8397029 L35.5927152,23.2342497 C35.5781723,22.8148473 35.4898767,22.5331434 35.4493646,22.1684 C35.1927879,20.7209886 34.5913388,19.208407 33.6387847,17.8944896 C32.6924633,16.5795211 31.4313938,15.4054045 29.9241354,14.6212587 C29.1668705,14.2449527 28.3794812,13.893874 27.5411921,13.7151813 C27.1308771,13.5848407 26.7008254,13.5512044 26.2780451,13.477625 C26.0671744,13.4324262 25.850071,13.4397842 25.6350451,13.4250683 L25.3130258,13.4082502 L25.1520161,13.3998411 L25.0709918,13.3945854 L25.0304797,13.3924832 L25.0107431,13.391432 C25.033596,13.3903809 24.9317964,13.3924832 25.0554103,13.3893298 C24.5921179,13.422966 24.0529951,13.4177104 23.6499515,13.4828807 C23.251063,13.5575112 22.8625622,13.5848407 22.4408207,13.7162324 C21.6014928,13.8959763 20.8141035,14.247055 20.0568386,14.6233609 C18.5506189,15.4096091 17.2895495,16.5826745 16.3442668,17.8986941 C15.390674,19.2178672 14.7944187,20.7146818 14.5336869,22.184167 C14.4910973,22.5552172 14.3996853,22.9157562 14.3913751,23.2794485 C14.3841037,23.6168625 14.3332039,24.060441 14.3570957,24.2927416 C14.3799487,24.6869168 14.4028016,25.073734 14.4256546,25.4542445 C14.4350036,25.6444997 14.4433138,25.8326527 14.4526627,26.0187034 L14.4547402,26.054442 L14.4547402,26.0712601 C14.4703218,26.2026518 14.4350036,25.9125389 14.4401974,25.9493286 L14.4495464,26.0176523 L14.4692831,26.1553508 L14.5087564,26.4286456 C14.6992094,27.7607048 14.8750731,28.9907401 15.0330123,30.0953522 L16.40796,29.3523738 L16.1285303,27.5664973 C16.0745142,27.2227765 16.3071991,26.9000784 16.6468776,26.8454194 L18.8978969,26.5395395 C19.2375754,26.4848805 19.5564785,26.7203345 19.6104946,27.0640553 L21.0408839,36.200511 C21.0938613,36.5442318 20.8622151,36.8669299 20.5225366,36.9215889 L18.2715173,37.2274688 C17.9318388,37.2821278 17.6129358,37.0466738 17.5589196,36.702953 L17.2774123,34.9065652 L15.7009085,34.7654874 C15.7420038,35.0526656 15.7768947,35.2964001 15.8051441,35.4936243 C15.8539664,35.8310382 15.627514,36.1411227 15.2961457,36.1999862 L14.6448356,36.3166621 C14.3134672,36.3755256 13.9966417,36.1621454 13.9280828,35.828936 C13.6631959,34.5444504 12.9890327,31.2670149 12.0821846,26.8617128 L12.0271297,26.5915714 L11.9990828,26.454924 L11.98454,26.3866003 L11.9596095,26.1774246 C11.9377953,25.9913739 11.9159811,25.8042721 11.8941668,25.615068 C11.8536547,25.2356087 11.8131426,24.8498425 11.7726305,24.4567185 C11.7373122,23.4654992 11.8214528,22.6466659 11.9803849,21.7048499 C12.3065594,19.8737747 13.0523978,18.0080121 14.2334818,16.3671921 C15.4083331,14.7284743 16.9768791,13.2768584 18.8508241,12.2961505 C19.7919517,11.8231403 20.7756689,11.3953288 21.8196349,11.1651304 C22.3203231,11.0116649 22.8947641,10.9485969 23.4453134,10.863455 C23.9958626,10.7877734 24.4269531,10.800387 24.924525,10.7646484 C27.1921646,10.7699041 29.2312744,11.3133403 31.1301499,12.2940482 C33.0040949,13.2726539 34.5736797,14.7242698 35.748531,16.3619364 C36.9316925,18.0080121 37.6764921,19.8559054 38.0068217,21.7090545 C38.069148,22.1757579 38.174064,22.7055294 38.1865293,23.1007557 L38.2166537,23.70726 L38.2311965,24.0068331 L38.2353516,24.0804125 L38.2343128,24.2485939 L38.233274,24.2664632 L38.2291189,24.3032529 L38.2145761,24.4514628 C38.1730252,24.8435357 38.1325131,25.230353 38.0930398,25.6087612 C38.0701868,25.7979653 38.0483726,25.9861183 38.0265584,26.172169 L38.019287,26.2415438 L37.9985115,26.3981627 L37.9953952,26.416032 L37.9881238,26.4496683 L37.9600769,26.5863157 L37.905022,26.8564571 C36.9981739,31.2617592 36.3240108,34.5391947 36.0591239,35.8226292 C35.9905649,36.1568897 35.6737394,36.3702699 35.3423711,36.3103553 L34.6910609,36.1947306 C34.3596926,36.1358671 34.1332403,35.8247314 34.1820626,35.4883686 C34.20853,35.3025471 34.2409357,35.0754162 34.2789051,34.8095503 L33.1947914,34.9065652 L32.9132841,36.702953 C32.859268,37.0466738 32.5403649,37.2821278 32.2006864,37.2274688 L29.9496671,36.9215889 C29.6099886,36.8669299 29.3783424,36.5442318 29.4313198,36.200511 L30.8617091,27.0640553 C30.9157252,26.7203345 31.2346283,26.4848805 31.5743068,26.5395395 L33.8253261,26.8454194 C34.1650046,26.9000784 34.3976896,27.2227765 34.3436734,27.5664973 L34.0642437,29.3523738 L34.9880594,29.8515747 Z" id="Combined-Shape" fill="#FFFFFF"></path>
        </g>
    </g>
</svg>