<?xml version="1.0" encoding="UTF-8" standalone="no"?>
<svg width="50px" height="50px" viewBox="0 0 50 50" version="1.1" xmlns="http://www.w3.org/2000/svg" xmlns:xlink="http://www.w3.org/1999/xlink">
    <!-- Generator: Sketch 39.1 (31720) - http://www.bohemiancoding.com/sketch -->
    <title>icon-zoom-in-spot</title>
    <desc>Created with Sketch.</desc>
    <defs></defs>
    <g id="site" stroke="none" stroke-width="1" fill="none" fill-rule="evenodd">
        <g id="icon-zoom-in-spot">
            <circle id="Combined-Shape" fill-opacity="0.75" fill="#000000" cx="24.9592679" cy="24.9592679" r="24.9592679"></circle>
            <g id="Group" transform="translate(13.000000, 13.000000)" fill="#FFFFFF">
                <g id="Page-1">
                    <path d="M10.7236753,18.6976902 C6.32021078,18.6976902 2.74966033,15.1271398 2.74966033,10.7236753 C2.74966033,6.32021078 6.32021078,2.74966033 10.7236753,2.74966033 C15.1271398,2.74966033 18.6976902,6.32021078 18.6976902,10.7236753 C18.6976902,15.1271398 15.1271398,18.6976902 10.7236753,18.6976902 Z M10.7236753,0 C4.80161531,0 0,4.80161531 0,10.7236753 C0,16.6457352 4.80161531,21.4473505 10.7236753,21.4473505 C16.6457352,21.4473505 21.4473505,16.6457352 21.4473505,10.7236753 C21.4473505,4.80161531 16.6457352,0 10.7236753,0 Z" id="Stroke-3"></path>
                    <path d="M22.6052875,24.7091076 L16.3811564,18.4838766 C16.1226883,18.2254086 16.1226883,17.8085601 16.3811564,17.550092 L17.5305144,16.400734 C17.7878826,16.1433658 18.205831,16.1433658 18.4631992,16.400734 L24.6884302,22.6259649 C24.9457984,22.8833332 24.9457984,23.3012815 24.6884302,23.5597496 L23.5390721,24.7091076 C23.2806041,24.9664758 22.8626557,24.9664758 22.6052875,24.7091076" id="Fill-5"></path>
                    <path d="M14.1878073,12.0983954 L7.25866332,12.0983954 C6.89460829,12.0983954 6.59874484,11.802532 6.59874484,11.438477 L6.59874484,10.0086536 C6.59874484,9.64459857 6.89460829,9.34873512 7.25866332,9.34873512 L14.1878073,9.34873512 C14.5518624,9.34873512 14.8477258,9.64459857 14.8477258,10.0086536 L14.8477258,11.438477 C14.8477258,11.802532 14.5518624,12.0983954 14.1878073,12.0983954" id="Fill-8"></path>
                    <path d="M11.438147,14.8480558 L10.0083236,14.8480558 C9.64426861,14.8480558 9.34840516,14.5521923 9.34840516,14.1881373 L9.34840516,7.25899327 C9.34840516,6.89493825 9.64426861,6.5990748 10.0083236,6.5990748 L11.438147,6.5990748 C11.802202,6.5990748 12.0980655,6.89493825 12.0980655,7.25899327 L12.0980655,14.1881373 C12.0980655,14.5521923 11.802202,14.8480558 11.438147,14.8480558" id="Fill-10"></path>
                </g>
            </g>
        </g>
    </g>
</svg>