<?xml version="1.0" encoding="UTF-8" standalone="no"?>
<svg width="50px" height="50px" viewBox="0 0 50 50" version="1.1" xmlns="http://www.w3.org/2000/svg" xmlns:xlink="http://www.w3.org/1999/xlink">
    <!-- Generator: Sketch 39.1 (31720) - http://www.bohemiancoding.com/sketch -->
    <title>icon-previous-spot</title>
    <desc>Created with Sketch.</desc>
    <defs></defs>
    <g id="site" stroke="none" stroke-width="1" fill="none" fill-rule="evenodd">
        <g id="icon-previous-spot">
            <circle id="Combined-Shape" fill-opacity="0.75" fill="#000000" cx="24.9592679" cy="24.9592679" r="24.9592679"></circle>
            <path d="M19.7294622,25 L29.9822107,15.1204392 C30.248354,14.8651026 30.248354,14.4504535 29.9822107,14.195117 L28.9414202,13.1923208 C28.6764094,12.9358931 28.2460499,12.9358931 27.9810391,13.1923208 L17.2877384,23.494169 C17.2730156,23.506172 17.2526302,23.5116279 17.2390399,23.5258133 L16.1971169,24.5286094 C16.0623464,24.6584601 15.9977925,24.8297756 16.0000576,25 C15.9977925,25.1702244 16.0623464,25.3415399 16.1971169,25.4713906 L17.2390399,26.4741867 C17.2526302,26.4883721 17.2730156,26.4927368 17.2877384,26.505831 L27.9810391,36.8076792 C28.2460499,37.0641069 28.6764094,37.0641069 28.9414202,36.8076792 L29.9822107,35.804883 C30.248354,35.5495465 30.248354,35.1348974 29.9822107,34.8795608 L19.7294622,25 Z" id="Fill-1" fill="#FFFFFF"></path>
        </g>
    </g>
</svg>