<?xml version="1.0" encoding="UTF-8" standalone="no"?>
<svg width="50px" height="50px" viewBox="0 0 50 50" version="1.1" xmlns="http://www.w3.org/2000/svg" xmlns:xlink="http://www.w3.org/1999/xlink">
    <!-- Generator: Sketch 39.1 (31720) - http://www.bohemiancoding.com/sketch -->
    <title>icon-subtitles-spot</title>
    <desc>Created with Sketch.</desc>
    <defs>
        <polygon id="path-1" points="26.6710098 19.3970981 26.6710098 1.77635684e-15 0 1.77635684e-15 5.3832169e-16 19.3970981 26.6710098 19.3970981"></polygon>
    </defs>
    <g id="site" stroke="none" stroke-width="1" fill="none" fill-rule="evenodd">
        <g id="icon-subtitles-spot">
            <circle id="Combined-Shape" fill-opacity="0.75" fill="#000000" cx="24.9592679" cy="24.9592679" r="24.9592679"></circle>
            <g id="Group" transform="translate(11.225098, 14.344313)">
                <path d="M19.3970981,18.1847794 L19.3970981,22.3387372 C19.3970981,22.9572641 18.620464,23.2659496 18.1660248,22.8300904 L13.3355049,18.1847794 L19.3970981,18.1847794 Z" id="Fill-1" fill="#FFFFFF"></path>
                <mask id="mask-2" fill="white">
                    <use xlink:href="#path-1"></use>
                </mask>
                <g id="Clip-5"></g>
                <path d="M22.4594149,5.68577437 C22.4594149,6.08705184 22.1333012,6.41316555 21.7320237,6.41316555 L14.2883874,6.41316555 C13.8871099,6.41316555 13.5609962,6.08705184 13.5609962,5.68577437 L13.5609962,4.71591947 C13.5609962,4.314642 13.8871099,3.98852829 14.2883874,3.98852829 L21.7320237,3.98852829 C22.1333012,3.98852829 22.4594149,4.314642 22.4594149,4.71591947 L22.4594149,5.68577437 Z M22.4594149,10.1313468 C22.4594149,10.5326242 22.1333012,10.858738 21.7320237,10.858738 L19.5922814,10.858738 C19.1897916,10.858738 18.8648902,10.5326242 18.8648902,10.1313468 L18.8648902,9.16149188 C18.8648902,8.75900209 19.1897916,8.4341007 19.5922814,8.4341007 L21.7320237,8.4341007 C22.1333012,8.4341007 22.4594149,8.75900209 22.4594149,9.16149188 L22.4594149,10.1313468 Z M4.2103826,9.16149188 C4.2103826,8.75900209 4.53649631,8.4341007 4.93777378,8.4341007 L15.7128617,8.4341007 C16.1153515,8.4341007 16.4402529,8.75900209 16.4402529,9.16149188 L16.4402529,10.1313468 C16.4402529,10.5326242 16.1153515,10.858738 15.7128617,10.858738 L4.93777378,10.858738 C4.53649631,10.858738 4.2103826,10.5326242 4.2103826,10.1313468 L4.2103826,9.16149188 Z M4.2103826,4.71591947 C4.2103826,4.314642 4.53649631,3.98852829 4.93777378,3.98852829 L10.4101801,3.98852829 C10.8114575,3.98852829 11.1363589,4.314642 11.1363589,4.71591947 L11.1363589,5.68577437 C11.1363589,6.08705184 10.8114575,6.41316555 10.4101801,6.41316555 L4.93777378,6.41316555 C4.53649631,6.41316555 4.2103826,6.08705184 4.2103826,5.68577437 L4.2103826,4.71591947 Z M25.2162275,1.77635684e-15 L1.45478235,1.77635684e-15 C0.651015104,1.77635684e-15 0,0.651015104 0,1.45478235 L0,17.9423157 C0,18.746083 0.651015104,19.3970981 1.45478235,19.3970981 L25.2162275,19.3970981 C26.0199947,19.3970981 26.6710098,18.746083 26.6710098,17.9423157 L26.6710098,1.45478235 C26.6710098,0.651015104 26.0199947,1.77635684e-15 25.2162275,1.77635684e-15 L25.2162275,1.77635684e-15 Z" id="Fill-4" fill="#FFFFFF" mask="url(#mask-2)"></path>
            </g>
        </g>
    </g>
</svg>