<?xml version="1.0" encoding="UTF-8" standalone="no"?>
<svg width="27px" height="20px" viewBox="0 0 27 20" version="1.1" xmlns="http://www.w3.org/2000/svg" xmlns:xlink="http://www.w3.org/1999/xlink">
    <!-- Generator: Sketch 39.1 (31720) - http://www.bohemiancoding.com/sketch -->
    <title>icon-speaker</title>
    <desc>Created with Sketch.</desc>
    <defs></defs>
    <g id="site" stroke="none" stroke-width="1" fill="none" fill-rule="evenodd">
        <g id="icon-speaker" fill="#231F1F">
            <path d="M12.8269,0.0971 L5.7529,4.6731 L1.1999,4.6731 C0.5369,4.6731 -0.0001,5.2111 -0.0001,5.8731 L-0.0001,9.9401 L-0.0001,13.9731 C-0.0001,14.6361 0.5369,15.1731 1.1999,15.1731 L5.7529,15.1731 L12.8169,19.9491 C13.2149,20.2181 13.7529,19.9331 13.7529,19.4521 L13.7529,0.6011 C13.7529,0.1251 13.2259,-0.1609 12.8269,0.0971 Z M22.6548,0.5393 C22.4208,0.2943 22.0208,0.3023 21.7868,0.5473 L20.8878,1.4863 C20.6648,1.7203 20.6738,2.0823 20.8958,2.3173 C22.8518,4.3913 23.9218,7.0873 23.9218,9.9723 C23.9218,12.8363 22.8068,15.6123 20.8428,17.6753 C20.6198,17.9093 20.6088,18.2703 20.8308,18.5053 L21.7228,19.4493 C21.9558,19.6963 22.3548,19.7083 22.5908,19.4633 C25.0328,16.9313 26.4218,13.5073 26.4218,9.9723 C26.4218,6.4123 25.0888,3.0863 22.6548,0.5393 Z M19.5864,3.7665 C19.3584,3.5135 18.9554,3.5195 18.7174,3.7635 L17.8074,4.6985 C17.5844,4.9285 17.5914,5.2825 17.8024,5.5235 C18.8814,6.7605 19.4704,8.3205 19.4704,9.9725 C19.4704,11.6525 18.8674,13.2265 17.7614,14.4635 C17.5474,14.7025 17.5344,15.0585 17.7554,15.2915 L18.6504,16.2365 C18.8844,16.4835 19.2874,16.4955 19.5194,16.2455 C21.1044,14.5335 21.9704,12.3295 21.9704,9.9725 C21.9704,7.6575 21.1284,5.4765 19.5864,3.7665 Z" id="Combined-Shape"></path>
        </g>
    </g>
</svg>