<?xml version="1.0" encoding="UTF-8" standalone="no"?>
<svg width="50px" height="50px" viewBox="0 0 50 50" version="1.1" xmlns="http://www.w3.org/2000/svg" xmlns:xlink="http://www.w3.org/1999/xlink">
    <!-- Generator: Sketch 39.1 (31720) - http://www.bohemiancoding.com/sketch -->
    <title>icon-mute-spot</title>
    <desc>Created with Sketch.</desc>
    <defs></defs>
    <g id="site" stroke="none" stroke-width="1" fill="none" fill-rule="evenodd">
        <g id="icon-mute-spot">
            <circle id="Combined-Shape" fill-opacity="0.75" fill="#000000" cx="24.9592679" cy="24.9592679" r="24.9592679"></circle>
            <path d="M24.9577283,14.106573 L17.2601396,19.1269268 L12.3057826,19.1269268 C11.5843377,19.1269268 11,19.7160723 11,20.4434531 L11,24.9053803 L11,29.3300059 C11,30.0573868 11.5843377,30.6465323 12.3057826,30.6465323 L17.2601396,30.6465323 L24.9468467,35.8863071 C25.3799313,36.1814284 25.9653572,35.8676563 25.9653572,35.3399487 L25.9653572,14.6595141 C25.9653572,14.137292 25.391901,13.8235199 24.9577283,14.106573 Z M36.0500253,24.89792 L38.3090293,22.6203295 C38.5636569,22.3636068 38.5636569,21.9467068 38.3090293,21.6899842 L37.3079293,20.6817444 C37.0533017,20.4239247 36.6398038,20.4239247 36.3851762,20.6817444 L34.1261722,22.9582379 L31.8671683,20.6817444 C31.6125407,20.4239247 31.1990428,20.4239247 30.9444152,20.6817444 L29.9444033,21.6899842 C29.6897757,21.9467068 29.6897757,22.3636068 29.9444033,22.6203295 L32.2034073,24.89792 L29.9444033,27.1755106 C29.6897757,27.4322332 29.6897757,27.8491332 29.9444033,28.1058559 L30.9444152,29.1140956 C31.1990428,29.3719154 31.6125407,29.3719154 31.8671683,29.1140956 L34.1261722,26.8376022 L36.3851762,29.1140956 C36.6398038,29.3719154 37.0533017,29.3719154 37.3079293,29.1140956 L38.3090293,28.1058559 C38.5636569,27.8491332 38.5636569,27.4322332 38.3090293,27.1755106 L36.0500253,24.89792 Z" id="Combined-Shape" fill="#FFFFFF"></path>
        </g>
    </g>
</svg>