<?xml version="1.0" encoding="UTF-8" standalone="no"?>
<svg width="50px" height="50px" viewBox="0 0 50 50" version="1.1" xmlns="http://www.w3.org/2000/svg" xmlns:xlink="http://www.w3.org/1999/xlink">
    <!-- Generator: Sketch 39.1 (31720) - http://www.bohemiancoding.com/sketch -->
    <title>icon-back-spot</title>
    <desc>Created with Sketch.</desc>
    <defs></defs>
    <g id="site" stroke="none" stroke-width="1" fill="none" fill-rule="evenodd">
        <g id="icon-back-spot">
            <circle id="Combined-Shape" fill-opacity="0.75" fill="#000000" cx="24.9592679" cy="24.9592679" r="24.9592679"></circle>
            <path d="M37.6260163,28.417004 C37.6375093,28.2918602 37.6260163,28.1667163 37.6145233,28.0301957 L37.6030303,28.0301957 C37.1548031,23.1723378 33.0173217,19.3611378 27.9833859,19.3611378 L22.4414593,19.3611378 L22.4414593,13.1881314 C22.4414593,12.6158826 21.7725665,12.2984722 21.3208914,12.6557011 L11.6219453,20.33726 C11.2760058,20.6103012 11.2760058,21.1290795 11.6219453,21.4032584 L21.3208914,29.0836796 C21.7725665,29.4409085 22.4414593,29.1234981 22.4414593,28.5512493 L22.4414593,22.2053169 L27.9833859,22.2053169 C31.7301052,22.2053169 34.7642583,25.20877 34.7642583,28.9062029 C34.7757513,28.9175796 34.7757513,28.9175796 34.7642583,28.9289563 C34.7297793,30.9312584 33.7758599,32.7742864 32.2128114,34.0029718 C31.9139933,34.2191294 31.8220492,34.6173145 32.0289233,34.9244859 L32.8219406,36.1759247 C33.0403077,36.5058494 33.4885348,36.5968632 33.7988459,36.3693288 C36.1652555,34.6332419 37.5570583,31.9380978 37.6156726,29.016557 C37.6179712,28.9778762 37.6375093,28.9448837 37.6375093,28.9062029 C37.6375093,28.7469288 37.6375093,28.5762781 37.6260163,28.417004" id="Fill-1" fill="#FFFFFF"></path>
        </g>
    </g>
</svg>