<svg xmlns="http://www.w3.org/2000/svg" viewBox="0 0 26.56 35.24"><title>icon-signLanguage</title><path d="M3.08,14.36c.49-1.67,7,1,7.38.08.5-1.09-8.16-5-7.1-6.68.95-1.47,8,4.49,8.68,3.56S4.4,4,5.78,2.5s7.91,7.55,9.31,6.28c.93-.84-4.71-7.49-3-8.69s8.13,11,9.53,10.84S23.79,6.1,26,6.63c1.72.41-1,4.45-1.25,7.83-.16,2.23.45,3-.35,4.8a24.81,24.81,0,0,1-2.83-2.69c-2.65-3.31-4.32-6.92-6.56-5.63-2.67,1.53.69,6.79.56,6.84-.39.14-6.33-.52-6.42-.55C6.74,16.49,2.65,15.85,3.08,14.36Zm18.06,3.58c-2.51-2.28-4-6.91-5.39-5.81-1.79,1.41,2.13,5.46,1.42,6.68-.31.53-3.27.21-6.5-.12C6.59,18.27,2.1,17.82,2,19c-.13,2.12,8.58,1.78,8.67,3,.14,1.89-11,1.26-10.68,3.45.31,2,10.44-.74,10.8.52.31,1.1-8.72,3-8.16,4.63.63,1.85,9.09-2.53,9.64-1.47.64,1.24-5.63,4.35-4.61,5.77s4.82-2.52,7-3.15,10.89-.67,10.89-6.1a7.51,7.51,0,0,0-2-5.45,31,31,0,0,0-2.43-2.3Z" transform="translate(0 -0.01)"/></svg>