<svg xmlns="http://www.w3.org/2000/svg" viewBox="0 0 28.7 26.8"><title>expand</title><path d="M308.2,408.6H287.7a4.12,4.12,0,0,0-4.1,4.1v18.6a4.12,4.12,0,0,0,4.1,4.1h20.5a4.12,4.12,0,0,0,4.1-4.1V412.7A4.06,4.06,0,0,0,308.2,408.6Zm1.6,21.7a2.48,2.48,0,0,1-2.5,2.5H288.6a2.48,2.48,0,0,1-2.5-2.5V413.7a2.48,2.48,0,0,1,2.5-2.5h18.7a2.48,2.48,0,0,1,2.5,2.5Z" transform="translate(-283.6 -408.6)"/><path d="M300.9,418.2l-2.5-2.7a.42.42,0,0,1,.3-.7l7.2-.5c.3,0,.5.2.4.5l-1.1,7.2c-.1.3-.5.5-.7.2l-2.5-2.8-7.1,6.5,2.5,2.8a.42.42,0,0,1-.3.7l-7.1.4c-.3,0-.5-.2-.4-.5l1.1-7.2c.1-.3.5-.5.7-.2l2.5,2.7Z" transform="translate(-283.6 -408.6)"/></svg>