<?xml version="1.0" encoding="UTF-8" standalone="no"?>
<svg width="50px" height="50px" viewBox="0 0 50 50" version="1.1" xmlns="http://www.w3.org/2000/svg" xmlns:xlink="http://www.w3.org/1999/xlink">
    <!-- Generator: Sketch 39.1 (31720) - http://www.bohemiancoding.com/sketch -->
    <title>icon-zoom-out-spot</title>
    <desc>Created with Sketch.</desc>
    <defs>
        <polygon id="path-1" points="9.79772727 9.09068182 9.79772727 0.106875 0.814261364 0.106875 0.814261364 9.09068182 9.79772727 9.09068182"></polygon>
    </defs>
    <g id="site" stroke="none" stroke-width="1" fill="none" fill-rule="evenodd">
        <g id="icon-zoom-out-spot">
            <circle id="Combined-Shape" fill-opacity="0.75" fill="#000000" cx="24.9592679" cy="24.9592679" r="24.9592679"></circle>
            <g id="Page-1" transform="translate(13.000000, 13.000000)">
                <path d="M19.6022727,9.94318182 C19.6022727,15.2772727 15.2772727,19.6022727 9.94318182,19.6022727 C4.60909091,19.6022727 0.284090909,15.2772727 0.284090909,9.94318182 C0.284090909,4.60909091 4.60909091,0.284090909 9.94318182,0.284090909 C15.2772727,0.284090909 19.6022727,4.60909091 19.6022727,9.94318182 L19.6022727,9.94318182 Z" id="Stroke-3" stroke="#FFFFFF" stroke-width="2.5"></path>
                <g id="Group-7" transform="translate(14.772727, 15.501591)">
                    <mask id="mask-2" fill="white">
                        <use xlink:href="#path-1"></use>
                    </mask>
                    <g id="Clip-6"></g>
                    <path d="M7.44636364,8.89125 L1.01454545,2.45943182 C0.7475,2.19238636 0.7475,1.76170455 1.01454545,1.49465909 L2.20204545,0.307159091 C2.46795455,0.0401136364 2.89977273,0.0401136364 3.16568182,0.307159091 L9.59863636,6.73897727 C9.86454545,7.00488636 9.86454545,7.43670455 9.59863636,7.70375 L8.41113636,8.89125 C8.14409091,9.15715909 7.71227273,9.15715909 7.44636364,8.89125" id="Fill-5" fill="#FFFFFF" mask="url(#mask-2)"></path>
                </g>
                <path d="M13.5222727,11.3634091 L6.36318182,11.3634091 C5.98704545,11.3634091 5.68136364,11.0577273 5.68136364,10.6815909 L5.68136364,9.20431818 C5.68136364,8.82818182 5.98704545,8.5225 6.36318182,8.5225 L13.5222727,8.5225 C13.8984091,8.5225 14.2040909,8.82818182 14.2040909,9.20431818 L14.2040909,10.6815909 C14.2040909,11.0577273 13.8984091,11.3634091 13.5222727,11.3634091" id="Fill-8" fill="#FFFFFF"></path>
            </g>
        </g>
    </g>
</svg>